<svg xmlns="http://www.w3.org/2000/svg" xmlns:xlink="http://www.w3.org/1999/xlink" width="1024" zoomAndPan="magnify" viewBox="0 0 768 587.999999" height="784" preserveAspectRatio="xMidYMid meet" version="1.0"><path fill="#000000" d="M 297 383.949219 C 280.886719 383.945312 265.136719 384.296875 249.441406 382.660156 C 215.867188 379.148438 185.292969 368.75 161.175781 343.8125 C 153.386719 335.757812 146.964844 326.683594 142.699219 316.261719 C 141.683594 313.78125 140.285156 312.558594 137.695312 311.929688 C 119.601562 307.539062 103.644531 299.058594 89.957031 286.417969 C 78.332031 275.679688 69.21875 263.082031 62.820312 248.613281 C 61.476562 245.574219 59.566406 244.457031 56.476562 243.839844 C 44.53125 241.453125 32.886719 238.128906 22.960938 230.601562 C 16.273438 225.535156 11.429688 219.242188 10.046875 210.6875 C 9.144531 205.101562 10.277344 203.648438 15.960938 203.648438 C 64.210938 203.640625 112.457031 203.648438 160.707031 203.648438 C 190.957031 203.652344 221.210938 204.046875 251.453125 203.53125 C 274.761719 203.132812 296.445312 208.777344 317.371094 218.382812 C 328.871094 223.660156 339.824219 229.910156 350.234375 237.089844 C 352.484375 238.640625 353.910156 238.679688 355.933594 236.671875 C 361.261719 231.390625 367.230469 226.824219 373.035156 222.078125 C 376.050781 219.609375 378.546875 219.367188 381.59375 222.066406 C 387.011719 226.875 392.804688 231.261719 398.164062 236.128906 C 400.621094 238.359375 402.261719 238.59375 405.117188 236.652344 C 421.632812 225.441406 439.234375 216.328125 458.285156 210.175781 C 471.320312 205.964844 484.617188 203.578125 498.386719 203.59375 C 578.257812 203.683594 658.132812 203.660156 738.003906 203.679688 C 744.503906 203.679688 745.761719 205.242188 744.347656 211.636719 C 741.5625 224.222656 732.535156 231.179688 721.726562 236.4375 C 713.917969 240.234375 705.570312 242.398438 697.082031 243.96875 C 694.445312 244.457031 693.089844 245.703125 691.960938 248.113281 C 676.6875 280.753906 652.257812 302.707031 617.011719 311.910156 C 615.042969 312.425781 613.367188 312.882812 612.402344 315.121094 C 600.964844 341.558594 580.683594 358.910156 554.859375 370.292969 C 535.296875 378.914062 514.617188 382.667969 493.324219 383.4375 C 464.710938 384.46875 436.089844 383.695312 407.472656 383.960938 C 402.378906 384.007812 401.050781 381.980469 402.636719 377.101562 C 405.800781 367.378906 407.75 357.511719 405.425781 347.289062 C 404.929688 345.121094 404.054688 343.003906 403.109375 340.972656 C 400.878906 336.179688 397.605469 333.554688 391.71875 333.824219 C 381.367188 334.296875 370.976562 334.027344 360.601562 333.902344 C 357.820312 333.867188 355.863281 334.851562 354.148438 336.933594 C 348.097656 344.289062 347.664062 352.953125 348.457031 361.804688 C 348.925781 367.019531 350.1875 372.128906 351.96875 377.085938 C 353.707031 381.929688 352.3125 383.9375 347.242188 383.941406 C 330.621094 383.953125 313.996094 383.949219 297 383.949219 M 649.875 210.765625 C 599.75 210.769531 549.625 210.796875 499.5 210.746094 C 491.351562 210.738281 483.277344 211.269531 475.3125 213 C 449.609375 218.589844 426.699219 230.308594 405.300781 245.226562 C 402.046875 247.496094 399.726562 247.441406 396.804688 244.667969 C 391.636719 239.777344 386.003906 235.375 380.785156 230.535156 C 378.207031 228.140625 376.367188 228.460938 373.808594 230.566406 C 368.207031 235.175781 362.695312 239.886719 357.472656 244.90625 C 354.820312 247.457031 352.558594 247.523438 349.578125 245.398438 C 339.277344 238.066406 328.410156 231.648438 316.976562 226.234375 C 298.1875 217.335938 278.800781 210.757812 257.671875 210.769531 C 179.046875 210.804688 100.421875 210.804688 21.796875 210.84375 C 20.507812 210.84375 19.027344 210.363281 17.929688 211.671875 C 17.929688 213.933594 19.121094 215.707031 20.269531 217.476562 C 23.488281 222.433594 28.027344 225.890625 33.160156 228.648438 C 45.292969 235.160156 58.535156 237.621094 72.011719 238.917969 C 90.085938 240.65625 108.234375 239.71875 126.351562 239.769531 C 169.847656 239.890625 213.347656 239.746094 256.847656 239.875 C 279.796875 239.945312 296.988281 252.433594 304.644531 274.03125 C 308.167969 283.96875 308.691406 294.308594 308.910156 304.691406 C 309.359375 325.960938 314.9375 345.375 329.472656 361.542969 C 330.742188 362.953125 331.90625 364.535156 334.382812 365.230469 C 333.992188 364.148438 333.816406 363.570312 333.578125 363.023438 C 326.535156 346.84375 325.605469 330.113281 329.664062 313.136719 C 336.550781 284.34375 354.152344 262.121094 374.300781 241.539062 C 376.363281 239.433594 378.417969 239.648438 380.476562 241.71875 C 396.898438 258.242188 411.355469 276.1875 420.175781 298.027344 C 428.625 318.945312 430.210938 340.132812 421.789062 361.535156 C 421.449219 362.398438 420.671875 363.277344 421.339844 364.34375 C 423.550781 363.339844 423.558594 363.34375 424.847656 361.925781 C 435.964844 349.699219 442.035156 335.183594 444.554688 318.984375 C 446.15625 308.703125 445.558594 298.296875 446.71875 287.992188 C 450.066406 258.195312 470.398438 239.824219 500.28125 239.816406 C 554.78125 239.804688 609.28125 239.800781 663.78125 239.855469 C 676.566406 239.867188 689.230469 238.785156 701.691406 235.910156 C 712.132812 233.503906 722.113281 229.945312 730.191406 222.503906 C 733.417969 219.53125 735.929688 216.050781 737.214844 210.765625 C 707.964844 210.765625 679.296875 210.765625 649.875 210.765625 M 594.484375 332.304688 C 598.175781 327.335938 601.808594 322.335938 603.851562 316.609375 C 602.972656 315.613281 602.1875 315.675781 601.460938 315.675781 C 581.109375 315.679688 560.757812 315.699219 540.40625 315.699219 C 538.773438 315.699219 537.527344 316.242188 536.601562 317.621094 C 527.363281 331.382812 514.253906 339.808594 498.785156 344.933594 C 497.265625 345.4375 496.269531 346.179688 495.539062 347.691406 C 493.414062 352.109375 490.425781 355.9375 487.078125 359.519531 C 480.265625 366.8125 472.175781 372.269531 462.480469 376.542969 C 467.367188 376.542969 471.550781 376.488281 475.734375 376.550781 C 495.761719 376.84375 515.632812 375.671875 535.023438 370.121094 C 558.382812 363.429688 578.769531 352.035156 594.484375 332.304688 M 250.054688 375.554688 C 263.210938 377.042969 276.390625 376.289062 289.90625 376.496094 C 288.964844 374.753906 287.625 374.597656 286.582031 374.035156 C 275.488281 368.023438 266.058594 360.171875 259.832031 349.042969 C 258.40625 346.5 256.703125 345.203125 254.09375 344.304688 C 239.394531 339.242188 227.09375 330.828125 218.222656 317.871094 C 216.832031 315.839844 215.125 315.707031 213.070312 315.707031 C 193.699219 315.703125 174.328125 315.65625 154.953125 315.660156 C 153.632812 315.660156 152.207031 315.308594 150.910156 316.332031 C 150.765625 317.640625 151.546875 318.675781 152.101562 319.757812 C 156.070312 327.496094 161.171875 334.449219 167.335938 340.539062 C 190.054688 362.992188 218.355469 372.460938 250.054688 375.554688 M 199.554688 308.167969 C 200.75 308.167969 201.949219 308.167969 204.261719 308.167969 C 201.953125 306.933594 200.667969 306.234375 199.375 305.554688 C 188.660156 299.925781 179.535156 292.421875 173.359375 281.929688 C 171.480469 278.738281 169.328125 277.0625 165.957031 275.910156 C 151.390625 270.925781 139.183594 262.589844 130.398438 249.714844 C 129.195312 247.953125 127.699219 247.394531 125.675781 247.316406 C 108.1875 246.644531 90.699219 247.167969 73.210938 247.007812 C 72.339844 247 71.429688 246.976562 70.808594 248.105469 C 70.949219 248.65625 71.003906 249.429688 71.332031 250.0625 C 89.402344 285.0625 118.042969 304.660156 157.296875 307.808594 C 171.082031 308.917969 185.023438 308.105469 199.554688 308.167969 M 609.730469 306.285156 C 644.507812 299.300781 668.574219 278.820312 684.578125 247.757812 C 683.816406 247.304688 683.710938 247.1875 683.605469 247.1875 C 665.121094 247.121094 646.632812 247.074219 628.144531 247 C 626.421875 246.992188 625.386719 247.9375 624.511719 249.242188 C 615.027344 263.367188 601.574219 271.910156 585.597656 276.882812 C 584.339844 277.273438 583.453125 277.804688 582.796875 279.066406 C 576.648438 290.917969 566.988281 299.167969 555.429688 305.417969 C 554.1875 306.089844 552.925781 306.726562 551.675781 307.382812 C 551.773438 307.675781 551.867188 307.972656 551.964844 308.269531 C 571.003906 307.40625 590.121094 309.769531 609.730469 306.285156 M 547.875 274.214844 C 551.246094 274.191406 554.621094 274.25 557.988281 274.125 C 575.574219 273.476562 592.085938 269.457031 606.242188 258.34375 C 610.136719 255.285156 613.726562 251.886719 617.132812 247.003906 C 613.09375 247.003906 609.882812 247.003906 606.671875 247.003906 C 570.082031 247.027344 533.492188 246.90625 496.902344 247.140625 C 481.316406 247.242188 468.980469 253.859375 460.832031 267.480469 C 459.714844 269.351562 458.40625 271.226562 458.273438 274.214844 C 488.046875 274.214844 517.585938 274.214844 547.875 274.214844 M 188.0625 273.484375 C 224.070312 275.050781 260.074219 273.796875 296.128906 274.21875 C 296.128906 273.132812 296.230469 272.734375 296.109375 272.417969 C 295.714844 271.371094 295.3125 270.3125 294.785156 269.328125 C 287.078125 254.910156 274.691406 247.640625 258.6875 247.117188 C 244.472656 246.65625 230.226562 247.289062 215.996094 247.324219 C 191.644531 247.386719 167.292969 247.347656 142.941406 247.394531 C 141.390625 247.398438 139.769531 246.855469 137.8125 247.835938 C 150.609375 263.980469 167.773438 271.03125 188.0625 273.484375 M 388.941406 261.601562 C 385.316406 257.21875 381.734375 252.789062 376.433594 248.289062 C 375.476562 249.769531 374.875 251.078125 373.941406 252.074219 C 363.929688 262.785156 354.859375 274.214844 347.652344 287.011719 C 338.664062 302.980469 333.355469 319.925781 334.707031 338.515625 C 335.257812 346.089844 337.035156 353.3125 340.730469 360.023438 C 341.058594 357.484375 340.910156 354.992188 341.085938 352.519531 C 341.640625 344.742188 343.976562 337.609375 349.140625 331.585938 C 351.878906 328.386719 355.117188 326.683594 359.5625 326.757812 C 371.796875 326.964844 384.039062 326.875 396.273438 326.777344 C 399.089844 326.753906 401.367188 327.613281 403.40625 329.46875 C 408.503906 334.117188 411.132812 340.050781 412.742188 346.621094 C 413.78125 350.867188 413.222656 355.222656 413.789062 360.238281 C 414.503906 359.09375 414.882812 358.632812 415.105469 358.105469 C 415.734375 356.613281 416.363281 355.117188 416.878906 353.582031 C 420.871094 341.667969 421.039062 329.484375 418.566406 317.347656 C 414.238281 296.089844 403.070312 278.328125 388.941406 261.601562 M 545.039062 302.328125 C 555.902344 297.945312 565.402344 291.789062 572.492188 281.9375 C 570.488281 281.0625 568.976562 281.359375 567.507812 281.359375 C 532.917969 281.339844 498.328125 281.347656 463.742188 281.347656 C 461.867188 281.347656 459.992188 281.40625 458.121094 281.351562 C 456.386719 281.300781 455.257812 281.957031 454.832031 283.707031 C 452.90625 291.640625 452.988281 299.683594 453.136719 307.9375 C 454.609375 308.039062 455.710938 308.175781 456.8125 308.175781 C 476.167969 308.179688 495.523438 308.203125 514.878906 308.140625 C 525.085938 308.105469 534.949219 306.089844 545.039062 302.328125 M 301.488281 301.746094 C 301.386719 296.632812 301.328125 291.53125 300.535156 286.441406 C 299.964844 282.769531 298.542969 281.246094 294.484375 281.261719 C 258.25 281.425781 222.019531 281.347656 185.785156 281.371094 C 184.722656 281.371094 183.546875 281 182.445312 281.960938 C 182.617188 282.382812 182.703125 282.886719 182.984375 283.234375 C 184.085938 284.589844 185.179688 285.964844 186.402344 287.207031 C 199.535156 300.527344 216.023438 306.871094 234.171875 307.753906 C 254.738281 308.75 275.390625 308.101562 296.003906 308.144531 C 301.453125 308.152344 301.453125 308.113281 301.488281 301.746094 M 495.105469 338.625 C 508.308594 334.535156 519.746094 327.855469 528.726562 316.269531 C 527.289062 315.992188 526.703125 315.78125 526.117188 315.777344 C 502.523438 315.75 478.933594 315.746094 455.34375 315.710938 C 453.054688 315.707031 452.003906 316.660156 451.730469 318.988281 C 450.910156 325.949219 449.136719 332.691406 446.730469 339.273438 C 446.402344 340.164062 445.863281 341.128906 446.996094 342.441406 C 453.65625 342.441406 460.621094 342.378906 467.582031 342.457031 C 476.753906 342.554688 485.722656 341.304688 495.105469 338.625 M 279.375 315.664062 C 261.757812 315.664062 244.136719 315.664062 225.789062 315.664062 C 226.710938 317.164062 226.96875 317.730469 227.351562 318.1875 C 234.3125 326.511719 243.003906 332.386719 253.03125 336.394531 C 270.6875 343.453125 289.144531 342.859375 307.613281 342.175781 C 307.796875 342.171875 307.96875 341.863281 308.179688 341.667969 C 308.546875 340.378906 307.839844 339.273438 307.449219 338.121094 C 305.367188 331.964844 303.691406 325.691406 302.910156 319.25 C 302.574219 316.480469 301.410156 315.648438 298.84375 315.679688 C 292.605469 315.753906 286.363281 315.679688 279.375 315.664062 M 320.894531 376.191406 C 325.308594 376.246094 329.738281 376.964844 334.386719 376.117188 C 334.023438 375.507812 333.910156 375.125 333.65625 374.925781 C 325.507812 368.5 318.894531 360.746094 313.769531 351.746094 C 312.714844 349.890625 311.253906 349.609375 309.402344 349.613281 C 297.28125 349.648438 285.160156 349.628906 273.039062 349.667969 C 271.980469 349.671875 270.761719 349.308594 269.667969 350.707031 C 272.148438 354.539062 275.476562 357.6875 279.082031 360.542969 C 291.132812 370.078125 305.167969 374.449219 320.894531 376.191406 M 468.125 365.695312 C 474.699219 361.519531 480.941406 356.996094 485.5625 349.640625 C 471.261719 349.640625 457.777344 349.664062 444.292969 349.613281 C 442.308594 349.609375 441.429688 350.808594 440.582031 352.253906 C 437.605469 357.34375 434.054688 361.988281 430.164062 366.421875 C 427.148438 369.855469 423.347656 372.457031 419.878906 376.296875 C 437.15625 377.113281 452.976562 374.234375 468.125 365.695312 Z M 468.125 365.695312 " fill-opacity="1" fill-rule="nonzero"/><path fill="#000000" d="M 555.832031 504.015625 C 582.804688 480.707031 604.679688 453.671875 621.183594 422.324219 C 636.578125 393.070312 646.339844 362.039062 650.644531 329.28125 C 651.082031 325.945312 651.289062 322.578125 651.5625 319.21875 C 651.722656 317.285156 652.050781 315.539062 654.046875 314.535156 C 657.183594 312.957031 658.894531 313.839844 658.699219 317.347656 C 657.921875 331.210938 655.613281 344.863281 652.484375 358.367188 C 642.234375 402.632812 622.46875 442.238281 592.980469 476.746094 C 549.632812 527.472656 495.054688 559.347656 429.496094 572.097656 C 408.085938 576.261719 386.386719 577.917969 364.621094 576.738281 C 299.699219 573.21875 242.195312 550.742188 192.785156 508.261719 C 157.429688 477.863281 131.324219 440.8125 114.21875 397.457031 C 104.863281 373.75 98.871094 349.199219 96.457031 323.804688 C 96.269531 321.816406 95.875 319.84375 95.824219 317.855469 C 95.78125 316.25 95.109375 313.882812 97.828125 313.875 C 100.292969 313.871094 102.566406 314.714844 102.90625 317.78125 C 103.378906 322.117188 103.78125 326.464844 104.359375 330.789062 C 111.648438 385.160156 133.378906 433.105469 169.214844 474.519531 C 202.425781 512.898438 243.304688 540.082031 291.464844 556.183594 C 313 563.386719 335.148438 567.550781 357.8125 569.125 C 405.28125 572.417969 450.597656 564.175781 493.714844 544.039062 C 516.148438 533.5625 536.746094 520.195312 555.832031 504.015625 Z M 555.832031 504.015625 " fill-opacity="1" fill-rule="nonzero"/><path fill="#000000" d="M 477.5625 30.789062 C 553.496094 60.902344 607.101562 113.476562 638.910156 188.34375 C 639.105469 188.804688 639.304688 189.265625 639.457031 189.738281 C 639.933594 191.230469 641.15625 193.125 639.082031 193.988281 C 637.050781 194.835938 634.523438 195.152344 633.179688 192.546875 C 632.035156 190.335938 631.195312 187.964844 630.160156 185.695312 C 592.984375 104.265625 531.191406 51.679688 444.914062 28.007812 C 418.570312 20.777344 391.546875 18.367188 364.351562 19.796875 C 301.050781 23.128906 245.175781 45.507812 197.117188 86.898438 C 164.066406 115.359375 139.292969 149.921875 122.585938 190.230469 C 121.628906 192.539062 120.730469 194.558594 117.664062 194.453125 C 114.273438 194.335938 113.546875 193.488281 114.796875 190.34375 C 120.210938 176.734375 126.628906 163.609375 134.167969 151.050781 C 157.539062 112.121094 188.257812 80.285156 226.660156 56.003906 C 260.496094 34.613281 297.289062 21.152344 336.929688 15.375 C 354.550781 12.808594 372.242188 11.828125 389.980469 12.667969 C 420 14.089844 449.15625 19.980469 477.5625 30.789062 Z M 477.5625 30.789062 " fill-opacity="1" fill-rule="nonzero"/><path fill="#000000" d="M 597.023438 358.296875 C 598.375 357.386719 599.535156 356.125 600.914062 357.261719 C 602.382812 358.472656 601.382812 360.074219 600.976562 361.445312 C 591.566406 393.042969 576.011719 421.320312 554.574219 446.316406 C 532.03125 472.613281 504.945312 492.984375 473.382812 507.285156 C 450.222656 517.777344 425.96875 524.230469 400.625 526.800781 C 366.515625 530.261719 333.296875 526.324219 300.976562 515.167969 C 263.242188 502.144531 231.003906 480.617188 204.179688 451.054688 C 180.722656 425.199219 163.980469 395.5 153.800781 362.105469 C 153.582031 361.386719 153.386719 360.664062 153.179688 359.941406 C 152.871094 358.851562 152.445312 357.65625 153.582031 356.855469 C 154.71875 356.050781 155.675781 356.914062 156.632812 357.511719 C 159.507812 359.3125 161.136719 361.835938 162.277344 365.097656 C 185.652344 431.945312 230.125 478.914062 295.703125 505.621094 C 317.484375 514.492188 340.355469 518.851562 363.867188 520.359375 C 457.414062 526.363281 542.5 473.050781 581.316406 392.550781 C 585.71875 383.425781 589.582031 374.074219 592.605469 364.398438 C 593.386719 361.898438 594.484375 359.804688 597.023438 358.296875 Z M 597.023438 358.296875 " fill-opacity="1" fill-rule="nonzero"/><path fill="#000000" d="M 200.742188 142.191406 C 228.535156 110.484375 262.03125 87.652344 301.6875 74.039062 C 321.988281 67.070312 342.867188 63.0625 364.355469 61.863281 C 411.371094 59.238281 455.167969 69.953125 495.644531 93.703125 C 534.664062 116.59375 564.4375 148.484375 585.21875 188.699219 C 586.109375 190.417969 588.125 192.757812 585.054688 194.058594 C 582.488281 195.144531 580.125 194.480469 578.578125 191.460938 C 570.917969 176.5 561.703125 162.539062 550.816406 149.726562 C 516.871094 109.777344 474.285156 84.152344 423.011719 73.179688 C 405.738281 69.484375 388.175781 67.792969 370.523438 68.511719 C 319.179688 70.597656 273.363281 87.589844 233.519531 120.234375 C 209.707031 139.742188 190.871094 163.3125 176.476562 190.480469 C 175.46875 192.378906 174.570312 194.238281 171.96875 194.425781 C 168.070312 194.710938 167.023438 193.4375 168.742188 189.933594 C 172.15625 182.972656 176.011719 176.253906 180.199219 169.726562 C 186.351562 160.140625 193.136719 151.023438 200.742188 142.191406 Z M 200.742188 142.191406 " fill-opacity="1" fill-rule="nonzero"/><path fill="#000000" d="M 294.644531 461.777344 C 298.320312 455.226562 301.996094 448.980469 305.34375 442.558594 C 306.984375 439.402344 308.742188 440.226562 311.078125 441.445312 C 313.445312 442.679688 314.117188 443.953125 312.589844 446.429688 C 310.363281 450.039062 308.460938 453.847656 306.398438 457.558594 C 305.167969 459.773438 304.054688 461.910156 305.292969 464.601562 C 306.070312 466.289062 304.9375 467.214844 303.296875 467.328125 C 301.132812 467.476562 300.046875 468.785156 299.105469 470.558594 C 297.113281 474.304688 295.039062 478.015625 292.863281 481.65625 C 291.996094 483.105469 291.679688 485.859375 289.101562 484.816406 C 286.566406 483.792969 283.484375 482.921875 283.546875 479.117188 C 283.617188 475.121094 283.5625 471.125 283.5625 467.125 C 283.5625 459.898438 283.5625 452.671875 282.769531 445.1875 C 280.59375 449.023438 278.398438 452.847656 276.242188 456.691406 C 273.734375 461.15625 271.167969 465.589844 268.804688 470.132812 C 267.402344 472.824219 265.757812 472.03125 263.917969 470.886719 C 262.140625 469.785156 259.863281 469.015625 261.582031 466.105469 C 263.679688 462.558594 265.597656 458.90625 267.632812 455.324219 C 268.996094 452.929688 270.488281 450.660156 269.105469 447.65625 C 268.445312 446.21875 269.421875 445.320312 270.9375 445.121094 C 273.324219 444.808594 274.511719 443.167969 275.554688 441.199219 C 277.421875 437.667969 279.347656 434.15625 281.453125 430.765625 C 282.375 429.273438 282.511719 426.152344 285.355469 427.324219 C 288.082031 428.445312 291.316406 429.355469 291.210938 433.605469 C 291.03125 440.972656 291.136719 448.347656 291.269531 455.714844 C 291.328125 458.882812 290.691406 462.140625 291.972656 465.351562 C 293.46875 464.546875 293.671875 463.035156 294.644531 461.777344 Z M 294.644531 461.777344 " fill-opacity="1" fill-rule="nonzero"/><path fill="#000000" d="M 507.222656 189.90625 C 506.507812 190.628906 506.046875 191.269531 505.433594 191.667969 C 503.847656 192.695312 503 195.980469 500.40625 194.042969 C 497.996094 192.25 495.636719 190.398438 496.894531 186.3125 C 500.128906 175.816406 502.839844 165.15625 505.753906 154.5625 C 505.78125 154.464844 505.703125 154.335938 505.425781 153.269531 C 498.773438 160.085938 492.46875 166.554688 486.160156 173.019531 C 482.835938 176.425781 480.664062 176.074219 478.199219 171.929688 C 477.1875 170.230469 478.277344 169.378906 479.226562 168.421875 C 482.210938 165.398438 485.0625 162.207031 488.289062 159.46875 C 490.796875 157.34375 490.40625 154.296875 491.636719 151.941406 C 492.847656 149.625 496.914062 151.613281 499.042969 148.78125 C 501.574219 145.421875 504.890625 142.628906 507.992188 139.730469 C 509.210938 138.59375 510.363281 136.003906 512.503906 137.886719 C 514.574219 139.710938 517.679688 141.058594 516.46875 145.097656 C 513.851562 153.828125 511.558594 162.652344 509.183594 171.453125 C 508.738281 173.097656 507.957031 174.707031 508.324219 177.945312 C 511.269531 174.699219 513.5 172.09375 515.890625 169.640625 C 519.90625 165.527344 524.09375 161.582031 528.070312 157.433594 C 530.15625 155.261719 531.492188 156.421875 532.964844 158.042969 C 534.355469 159.574219 536.472656 160.835938 533.984375 163.222656 C 530.46875 166.59375 527.265625 170.320312 523.566406 173.472656 C 521.140625 175.535156 522.453125 178.75 520.90625 180.460938 C 519.367188 182.164062 515.929688 180.421875 513.972656 183.046875 C 512.125 185.527344 509.625 187.515625 507.222656 189.90625 Z M 507.222656 189.90625 " fill-opacity="1" fill-rule="nonzero"/><path fill="#000000" d="M 361.496094 466.535156 C 357.636719 461.519531 350.230469 459.488281 345.9375 461.882812 C 343.761719 463.09375 342.65625 464.761719 342.296875 467.15625 C 341.371094 473.324219 340.324219 479.46875 339.402344 485.636719 C 338.90625 488.941406 341.867188 492.253906 345.867188 493.035156 C 352.925781 494.414062 357.355469 493.082031 358.476562 489.332031 C 359.039062 487.453125 358.503906 486.449219 356.542969 486.207031 C 355.675781 486.097656 354.824219 485.863281 353.953125 485.804688 C 351.027344 485.59375 349.886719 484.5 350.464844 481.21875 C 351.050781 477.890625 352.457031 477.054688 355.523438 477.695312 C 358.574219 478.335938 361.667969 478.808594 364.761719 479.167969 C 367.300781 479.46875 368.222656 480.65625 367.785156 483.175781 C 367.140625 486.863281 366.652344 490.574219 366.078125 494.269531 C 365.898438 495.441406 365.242188 496.328125 364.3125 497.042969 C 359.359375 500.851562 354.246094 504.023438 347.578125 501.667969 C 346.765625 501.378906 345.859375 501.15625 345.011719 501.191406 C 337.785156 501.496094 334.578125 496.109375 331.269531 491.207031 C 329.542969 488.640625 331.359375 485.621094 331.710938 482.839844 C 332.019531 480.417969 332.441406 478.167969 330.417969 476.226562 C 329.53125 475.378906 329.054688 474.035156 330.335938 473.34375 C 334.84375 470.914062 334.160156 466.324219 334.828125 462.46875 C 335.28125 459.851562 336.539062 458.421875 338.378906 456.742188 C 343.632812 451.945312 349.457031 452.789062 355.839844 453.363281 C 362.90625 454 366.203125 458.582031 369.746094 463.371094 C 370.730469 464.703125 370.015625 472.84375 368.855469 473.886719 C 366.921875 475.621094 364.804688 474.078125 362.820312 473.832031 C 361.25 473.632812 361.273438 472.101562 361.429688 470.808594 C 361.59375 469.46875 362.289062 468.160156 361.496094 466.535156 Z M 361.496094 466.535156 " fill-opacity="1" fill-rule="nonzero"/><path fill="#000000" d="M 519.105469 444.957031 C 513.71875 446.226562 509.335938 445.757812 505.757812 441.214844 C 503.648438 438.535156 505.574219 437.476562 506.898438 435.960938 C 508.164062 434.515625 509.25 433.117188 511.457031 435.066406 C 514.851562 438.0625 518.085938 437.863281 521.242188 434.511719 C 523.292969 432.332031 526.269531 430.800781 526.371094 427.066406 C 526.445312 424.277344 525.863281 421.773438 523.300781 420.859375 C 520.902344 420.003906 518.113281 420.222656 515.960938 422.128906 C 514.652344 423.285156 513.351562 424.496094 512.300781 425.875 C 510.113281 428.742188 507.34375 429.648438 503.761719 430.257812 C 498.289062 431.1875 494.472656 429.722656 490.917969 425.699219 C 487.324219 421.628906 486.867188 412.234375 490.539062 408.238281 C 491.46875 407.226562 492.640625 406.390625 493.371094 405.257812 C 497.371094 399.078125 503.441406 398.160156 510.042969 398.511719 C 513.476562 398.691406 515.414062 401.339844 516.789062 403.761719 C 517.949219 405.808594 515.011719 406.921875 513.820312 408.382812 C 512.855469 409.566406 511.710938 409.550781 510.601562 408.460938 C 508.210938 406.113281 505.15625 405.722656 502.792969 407.644531 C 499.503906 410.320312 495.613281 413.101562 496.167969 418.242188 C 496.554688 421.847656 502.410156 423.488281 505.601562 420.914062 C 507.046875 419.746094 508.480469 418.441406 509.546875 416.933594 C 513.558594 411.28125 519.664062 412.238281 525.210938 412.125 C 528.488281 412.058594 534.5625 420.464844 534.875 423.777344 C 535.445312 429.828125 533.851562 434.78125 528.855469 438.527344 C 525.808594 440.8125 524.4375 445.53125 519.105469 444.957031 Z M 519.105469 444.957031 " fill-opacity="1" fill-rule="nonzero"/><path fill="#000000" d="M 384.667969 127.992188 C 379.828125 134.648438 373.75 136.980469 365.605469 137.011719 C 358.96875 137.039062 355.136719 133.566406 351.226562 129.785156 C 349.015625 127.648438 349.601562 123.972656 350.433594 121.199219 C 351.132812 118.875 353.890625 119.953125 355.777344 119.804688 C 357.367188 119.683594 357.789062 120.746094 358 122.179688 C 358.652344 126.554688 361.351562 128.796875 365.886719 128.699219 C 368.9375 128.636719 372.074219 129.230469 374.679688 126.589844 C 376.664062 124.582031 377.859375 122.390625 376.523438 119.949219 C 375.214844 117.558594 373.03125 115.695312 369.921875 115.78125 C 369.054688 115.804688 368.175781 115.964844 367.328125 116.171875 C 360.132812 117.941406 355.515625 113.511719 351.054688 109.148438 C 348.765625 106.910156 350.164062 97.503906 351.960938 94.808594 C 357.074219 87.144531 364.949219 87.824219 372.410156 87.792969 C 377.585938 87.773438 384.351562 96.605469 383.972656 101.800781 C 383.828125 103.773438 382.679688 104.4375 380.988281 104.324219 C 379.070312 104.199219 376.609375 105.519531 375.726562 102.351562 C 374.011719 96.1875 365.863281 93.757812 360.53125 97.746094 C 358.570312 99.210938 357.316406 101.078125 358.097656 103.53125 C 358.925781 106.121094 361.03125 107.617188 363.675781 107.816406 C 366.402344 108.023438 369.179688 107.902344 371.914062 107.652344 C 374.058594 107.453125 375.601562 108.347656 377.425781 109.292969 C 385.335938 113.382812 385.925781 120.183594 384.667969 127.992188 Z M 384.667969 127.992188 " fill-opacity="1" fill-rule="nonzero"/><path fill="#000000" d="M 243.972656 432.863281 C 240.964844 438.171875 238.65625 443.570312 235.34375 448.386719 C 229.835938 445.074219 229.28125 443.394531 231.820312 438.472656 C 235.355469 431.605469 234.9375 431.917969 230.414062 425.863281 C 225.847656 419.75 221.34375 416.675781 213.894531 421.214844 C 211.21875 422.84375 208.992188 420.921875 206.578125 415.664062 C 211.429688 413.777344 216.277344 411.921875 221.101562 410.007812 C 223.558594 409.03125 226.40625 408.679688 226.605469 404.902344 C 226.714844 402.863281 228.78125 403.523438 229.894531 404.144531 C 232.371094 405.523438 234.613281 404.996094 237.027344 404.023438 C 241.3125 402.296875 245.746094 400.921875 249.964844 399.054688 C 253.101562 397.667969 255.152344 398.226562 257.433594 400.816406 C 259.632812 403.308594 258.828125 405.179688 257.554688 407.515625 C 253.015625 415.851562 248.578125 424.246094 243.972656 432.863281 M 240.523438 411.160156 C 237.804688 412.53125 234.628906 412.945312 231.972656 415.101562 C 234.140625 418.203125 236.515625 420.808594 239.816406 423.429688 C 242.414062 418.667969 244.847656 414.207031 247.277344 409.75 C 247.042969 409.507812 246.804688 409.265625 246.570312 409.023438 C 244.734375 409.671875 242.894531 410.316406 240.523438 411.160156 Z M 240.523438 411.160156 " fill-opacity="1" fill-rule="nonzero"/><path fill="#000000" d="M 315.085938 140.285156 C 319.183594 137.464844 320.070312 134.660156 318.347656 130.605469 C 314.679688 121.988281 311.070312 113.339844 307.292969 104.769531 C 306.050781 101.949219 305.792969 100.164062 309.308594 98.703125 C 312.609375 97.332031 313.726562 98.488281 314.777344 101.304688 C 316.125 104.929688 317.835938 108.414062 319.300781 112 C 320.308594 114.476562 321.296875 116.859375 324.351562 117.453125 C 325.496094 117.675781 326.285156 118.699219 325.625 119.671875 C 323.042969 123.484375 325.566406 126.613281 326.855469 129.832031 C 329.273438 135.863281 325.851562 144.597656 319.886719 147.167969 C 318.394531 147.808594 316.765625 148.242188 315.4375 149.132812 C 309.472656 153.132812 303.679688 151.511719 297.765625 148.988281 C 295.605469 148.066406 295.046875 146.234375 294.203125 144.453125 C 292.605469 141.070312 292.148438 136.871094 287.429688 135.804688 C 286.027344 135.488281 286.273438 133.941406 286.867188 132.949219 C 288.292969 130.5625 287.472656 128.4375 286.480469 126.203125 C 284.703125 122.210938 283.179688 118.097656 281.3125 114.152344 C 279.902344 111.171875 281.851562 110.503906 283.867188 109.574219 C 286.007812 108.582031 287.722656 108.035156 288.921875 110.960938 C 292.523438 119.742188 296.292969 128.453125 300.003906 137.1875 C 302.566406 143.222656 305.492188 144.410156 311.375 141.84375 C 312.519531 141.34375 313.679688 140.886719 315.085938 140.285156 Z M 315.085938 140.285156 " fill-opacity="1" fill-rule="nonzero"/><path fill="#000000" d="M 235.855469 154 C 235.351562 152.820312 234.957031 151.898438 234.578125 150.976562 C 232.863281 146.777344 233.765625 144.378906 237.707031 142.160156 C 238.894531 141.492188 239.855469 141.804688 240.882812 142.308594 C 254.789062 149.132812 268.695312 155.960938 282.59375 162.800781 C 283.25 163.125 283.972656 163.453125 284.125 164.316406 C 280.734375 169.773438 279.488281 170.117188 274.113281 167.558594 C 266.136719 163.765625 269.160156 163.773438 262.1875 169.332031 C 256 174.265625 253.078125 178.90625 257.867188 186.605469 C 260.199219 190.359375 255.246094 191.355469 253.652344 193.582031 C 251.414062 192.878906 251.308594 191.039062 250.695312 189.636719 C 248.992188 185.75 247.359375 181.824219 245.796875 177.878906 C 244.984375 175.820312 244.265625 173.921875 241.464844 174.089844 C 239.976562 174.179688 239.300781 172.949219 239.953125 171.8125 C 242.546875 167.300781 239.683594 163.671875 238.25 159.808594 C 237.554688 157.9375 236.738281 156.109375 235.855469 154 M 256.417969 163.753906 C 257.257812 162.71875 258.632812 162.101562 259.03125 160.054688 C 254.441406 157.78125 249.75 155.460938 245.054688 153.140625 C 244.8125 153.378906 244.570312 153.617188 244.328125 153.855469 C 246.394531 158.652344 248.460938 163.453125 250.539062 168.285156 C 253.222656 167.289062 254.441406 165.453125 256.417969 163.753906 Z M 256.417969 163.753906 " fill-opacity="1" fill-rule="nonzero"/><path fill="#000000" d="M 423.585938 490.285156 C 424.382812 490.160156 424.910156 490.164062 425.359375 489.980469 C 428.691406 488.601562 429.976562 489.96875 430.632812 493.277344 C 431.3125 496.710938 429.78125 497.644531 426.847656 498.121094 C 419.714844 499.285156 412.59375 500.539062 405.507812 501.957031 C 402.566406 502.542969 401.4375 501.523438 401.042969 498.699219 C 400.496094 494.75 399.546875 490.859375 398.964844 486.914062 C 398.582031 484.34375 398.074219 482.0625 395.390625 480.828125 C 393.753906 480.074219 393.714844 478.734375 394.960938 477.503906 C 396.8125 475.675781 396.671875 473.558594 396.207031 471.25 C 395.320312 466.851562 394.648438 462.410156 393.757812 458.011719 C 393.273438 455.59375 394.234375 454.597656 396.539062 454.203125 C 404.15625 452.894531 411.773438 451.558594 419.351562 450.054688 C 422.46875 449.433594 422.84375 451.210938 423.320312 453.511719 C 423.816406 455.902344 423.871094 457.617188 420.820312 458.089844 C 416.019531 458.832031 411.265625 459.898438 406.464844 460.632812 C 403.667969 461.058594 402.578125 462.160156 403.242188 465.132812 C 405.4375 474.914062 403.488281 473.167969 413.410156 471.855469 C 414.398438 471.722656 415.375 471.515625 416.355469 471.332031 C 421.152344 470.4375 421.335938 470.652344 422.199219 475.300781 C 422.613281 477.53125 421.929688 478.589844 419.761719 478.964844 C 416.324219 479.558594 412.910156 480.316406 409.460938 480.84375 C 407.238281 481.183594 406.40625 482.347656 406.804688 484.449219 C 408.527344 493.558594 407.109375 493.324219 415.933594 491.71875 C 418.386719 491.273438 420.832031 490.792969 423.585938 490.285156 Z M 423.585938 490.285156 " fill-opacity="1" fill-rule="nonzero"/><path fill="#000000" d="M 421.683594 92.65625 C 428.402344 94.320312 434.800781 96.023438 441.246094 97.492188 C 444.121094 98.144531 445.277344 99.1875 444.3125 102.363281 C 443.464844 105.144531 442.488281 106.550781 439.363281 105.449219 C 437.136719 104.667969 434.769531 104.292969 432.476562 103.691406 C 430.714844 103.230469 429.640625 103.660156 429.21875 105.609375 C 428.640625 108.289062 427.859375 110.925781 427.195312 113.585938 C 427.078125 114.058594 426.894531 114.765625 427.125 115.039062 C 430.164062 118.648438 428.238281 120.511719 425.332031 123.222656 C 423.457031 124.96875 423.445312 128.746094 422.660156 131.628906 C 422.066406 133.792969 421.433594 135.960938 421.0625 138.167969 C 420.535156 141.332031 419.140625 142.265625 415.882812 141.382812 C 412.886719 140.570312 412.011719 139.414062 412.984375 136.382812 C 414.242188 132.472656 414.980469 128.394531 416.121094 124.441406 C 416.777344 122.164062 417.066406 120.097656 415.410156 118.097656 C 414.675781 117.210938 414.113281 115.898438 415.496094 115.203125 C 421.304688 112.265625 419.8125 106.253906 421.851562 101.570312 C 418.847656 99.921875 415.867188 99.535156 412.996094 98.933594 C 409.894531 98.28125 408.484375 97.207031 409.449219 93.605469 C 410.367188 90.160156 412.015625 89.914062 414.863281 90.898438 C 416.976562 91.632812 419.203125 92.042969 421.683594 92.65625 Z M 421.683594 92.65625 " fill-opacity="1" fill-rule="nonzero"/><path fill="#000000" d="M 464.351562 480.480469 C 462.40625 476.964844 460.558594 473.703125 458.800781 470.394531 C 457.558594 468.058594 456.453125 465.773438 453.324219 465.378906 C 451.535156 465.15625 451.28125 463.644531 451.988281 462.199219 C 453.089844 459.957031 452.1875 458.148438 451.109375 456.246094 C 448.886719 452.335938 446.867188 448.308594 444.554688 444.453125 C 442.992188 441.851562 444.09375 440.753906 446.363281 439.582031 C 448.570312 438.445312 450.175781 437.519531 451.785156 440.542969 C 457.1875 450.683594 462.808594 460.714844 468.355469 470.78125 C 468.652344 471.320312 469.019531 471.816406 469.660156 472.804688 C 474.628906 470.128906 479.527344 467.480469 484.4375 464.855469 C 488.238281 462.820312 491.054688 464.265625 491.753906 468.511719 C 492 469.992188 491.011719 470.550781 490.050781 471.078125 C 482.9375 474.996094 475.78125 478.84375 468.679688 482.777344 C 466.160156 484.175781 465.355469 482.472656 464.351562 480.480469 Z M 464.351562 480.480469 " fill-opacity="1" fill-rule="nonzero"/><path fill="#000000" d="M 475.714844 112.78125 C 478.648438 113.902344 479.320312 115.433594 477.730469 118.058594 C 475.65625 121.472656 473.859375 125.054688 471.929688 128.554688 C 470.609375 130.957031 469.105469 133.253906 470.589844 136.21875 C 471.328125 137.6875 470.378906 138.671875 468.902344 138.832031 C 466.257812 139.113281 465.164062 140.964844 464.09375 143.03125 C 462.085938 146.917969 459.847656 150.683594 457.921875 154.605469 C 456.390625 157.730469 454.566406 156.535156 452.425781 155.488281 C 450.140625 154.367188 449.070312 153.21875 450.625 150.605469 C 452.984375 146.632812 455.0625 142.496094 457.265625 138.433594 C 457.5625 137.882812 458.242188 137.21875 458.113281 136.808594 C 456.546875 131.914062 460.148438 130.324219 462.9375 127.417969 C 466.355469 123.847656 468.160156 118.6875 470.457031 114.109375 C 471.714844 111.601562 473.210938 111.117188 475.714844 112.78125 Z M 475.714844 112.78125 " fill-opacity="1" fill-rule="nonzero"/><path fill="#000000" d="M 355.753906 537.972656 C 357.046875 544.324219 355.394531 550.277344 354.605469 556.285156 C 354.449219 557.476562 353.347656 558.167969 352.058594 557.984375 C 350.773438 557.804688 350.082031 556.90625 350.042969 555.652344 C 349.976562 553.558594 350.023438 551.460938 350.023438 549.148438 C 347.910156 549.429688 347.222656 552.058594 345.085938 551.6875 C 342.890625 551.308594 342.773438 548.894531 341.082031 547.574219 C 340.160156 549.320312 340.070312 551.128906 339.875 552.929688 C 339.6875 554.660156 339.042969 556.324219 337.007812 556.199219 C 334.859375 556.070312 334.664062 554.363281 334.882812 552.574219 C 335.449219 547.867188 335.992188 543.15625 336.519531 538.441406 C 336.667969 537.097656 337.125 535.953125 338.515625 535.578125 C 340.140625 535.144531 341.09375 536.210938 341.820312 537.441406 C 343.074219 539.570312 344.265625 541.738281 345.5625 544.035156 C 348.242188 543.0625 349.414062 540.890625 351.066406 539.304688 C 352.34375 538.085938 353.46875 536.601562 355.753906 537.972656 Z M 355.753906 537.972656 " fill-opacity="1" fill-rule="nonzero"/><path fill="#000000" d="M 309.769531 533.816406 C 311.898438 532.496094 313.449219 529.566406 316.050781 531.171875 C 319.023438 533.003906 316.660156 535.699219 316.152344 537.921875 C 315.347656 541.433594 314.203125 544.871094 313.164062 548.332031 C 312.65625 550.035156 311.699219 551.4375 309.691406 550.757812 C 307.921875 550.164062 307.917969 548.539062 308.304688 546.984375 C 308.722656 545.320312 309.207031 543.671875 309.761719 541.660156 C 307.359375 541.621094 306.09375 544.144531 303.957031 543.296875 C 301.917969 542.484375 302.019531 540.230469 300.667969 538.523438 C 299.140625 540.246094 299.371094 542.542969 298.429688 544.320312 C 297.769531 545.5625 297.078125 546.925781 295.390625 546.5 C 293.632812 546.054688 293.722656 544.429688 293.929688 543.101562 C 294.722656 538.042969 296.46875 533.226562 297.925781 528.34375 C 298.265625 527.199219 299.179688 526.453125 300.464844 526.511719 C 301.753906 526.570312 302.460938 527.488281 302.890625 528.5625 C 303.890625 531.074219 304.820312 533.613281 305.75 536.058594 C 307.65625 535.976562 308.410156 534.640625 309.769531 533.816406 Z M 309.769531 533.816406 " fill-opacity="1" fill-rule="nonzero"/><path fill="#000000" d="M 434.769531 552.410156 C 430.808594 549.855469 427.679688 546.582031 423.453125 544.421875 C 422.929688 547.152344 424.0625 549.359375 424.320312 551.660156 C 424.523438 553.46875 424.316406 555.089844 422.304688 555.441406 C 420.414062 555.769531 419.703125 554.191406 419.386719 552.683594 C 418.425781 548.050781 417.566406 543.398438 416.675781 538.75 C 416.433594 537.488281 416.296875 536.214844 417.617188 535.421875 C 419.015625 534.578125 420.25 535.171875 421.40625 536.027344 C 424.585938 538.375 427.765625 540.726562 431.332031 543.367188 C 432.261719 540.492188 430.949219 538.289062 430.894531 536.039062 C 430.851562 534.355469 430.570312 532.554688 432.792969 532.246094 C 434.917969 531.953125 435.519531 533.675781 435.847656 535.3125 C 436.757812 539.824219 437.632812 544.34375 438.414062 548.878906 C 438.855469 551.449219 438.0625 553.101562 434.769531 552.410156 Z M 434.769531 552.410156 " fill-opacity="1" fill-rule="nonzero"/><path fill="#000000" d="M 446.195312 55.4375 C 447.339844 51.828125 448.464844 48.519531 449.445312 45.164062 C 450.277344 42.320312 451.84375 41.207031 454.738281 42.414062 C 455.773438 42.84375 456.859375 43.164062 457.941406 43.453125 C 461.226562 44.324219 463.570312 46.234375 464.277344 49.632812 C 465 53.101562 464.019531 56.140625 461.007812 58.171875 C 459.441406 59.226562 459.335938 60.347656 459.804688 61.980469 C 460.222656 63.445312 459.730469 64.765625 458.101562 65.226562 C 456.648438 65.636719 455.742188 64.769531 455.09375 63.589844 C 454.792969 63.046875 454.550781 62.464844 454.285156 61.902344 C 452.453125 58.007812 452.441406 57.996094 449.648438 61.050781 C 448.820312 61.957031 447.925781 62.511719 446.691406 62.019531 C 445.292969 61.457031 444.933594 60.300781 445.195312 58.957031 C 445.410156 57.859375 445.796875 56.796875 446.195312 55.4375 M 453.53125 49.550781 C 453.300781 50.957031 451.570312 52.539062 453.894531 53.652344 C 455.492188 54.417969 457.183594 54.925781 458.617188 53.285156 C 459.519531 52.25 459.8125 50.992188 458.8125 49.949219 C 457.417969 48.496094 455.824219 47.25 453.53125 49.550781 Z M 453.53125 49.550781 " fill-opacity="1" fill-rule="nonzero"/><path fill="#000000" d="M 268.890625 513.714844 C 276.148438 516.0625 279.207031 522.132812 276.558594 528.382812 C 274.195312 533.949219 267.460938 536.410156 262.136719 533.644531 C 257.824219 531.40625 255.675781 526.394531 256.945312 521.539062 C 258.304688 516.359375 262.402344 513.582031 268.890625 513.714844 M 262.863281 521.253906 C 261.34375 523.652344 261.429688 526.015625 263.355469 528.085938 C 264.820312 529.664062 266.699219 530.191406 268.78125 529.191406 C 270.859375 528.195312 272.074219 526.617188 272.121094 524.238281 C 272.15625 522.21875 271.519531 520.46875 269.667969 519.554688 C 267.292969 518.382812 265.078125 518.847656 262.863281 521.253906 Z M 262.863281 521.253906 " fill-opacity="1" fill-rule="nonzero"/><path fill="#000000" d="M 571.332031 141.703125 C 571.394531 140.289062 571.578125 139.113281 570.058594 138.402344 C 569.414062 138.691406 568.648438 139.078125 567.851562 139.375 C 566.671875 139.824219 565.589844 139.574219 564.851562 138.542969 C 564.109375 137.507812 564.132812 136.296875 565.109375 135.484375 C 569.328125 131.980469 573.605469 128.539062 577.902344 125.125 C 578.605469 124.566406 579.515625 124.5625 580.398438 124.941406 C 583.824219 126.410156 587.53125 133.714844 586.582031 137.324219 C 585.601562 141.039062 582.945312 142.855469 579.285156 143.328125 C 577.933594 143.503906 576.539062 143.289062 575.984375 145.078125 C 575.492188 146.683594 574.652344 148.316406 572.5625 147.589844 C 570.589844 146.90625 570.753906 145.164062 571.132812 143.480469 C 571.242188 142.996094 571.25 142.492188 571.332031 141.703125 M 578.164062 131.589844 C 576.878906 132.332031 575.570312 133.050781 574.90625 134.679688 C 576.070312 136.484375 576.898438 138.859375 579.855469 137.867188 C 580.945312 137.503906 581.765625 136.503906 581.667969 135.28125 C 581.519531 133.421875 580.570312 132.035156 578.164062 131.589844 Z M 578.164062 131.589844 " fill-opacity="1" fill-rule="nonzero"/><path fill="#000000" d="M 307.390625 62.421875 C 301.074219 63.835938 296.453125 61.617188 294.304688 56.363281 C 292.304688 51.46875 293.84375 46.332031 298.140625 43.539062 C 302.792969 40.515625 308.804688 41.609375 312.117188 46.085938 C 315.496094 50.652344 314.835938 56.878906 310.515625 60.566406 C 309.675781 61.28125 308.628906 61.753906 307.390625 62.421875 M 308.476562 49.882812 C 306.613281 47.261719 304.289062 45.820312 301.1875 47.6875 C 298.5625 49.269531 298.039062 51.839844 299.09375 54.539062 C 300.15625 57.257812 302.515625 58.179688 305.214844 57.5 C 308.976562 56.550781 309.351562 53.679688 308.476562 49.882812 Z M 308.476562 49.882812 " fill-opacity="1" fill-rule="nonzero"/><path fill="#000000" d="M 342.6875 49.746094 C 344.316406 49.347656 346.019531 49.550781 346.667969 47.5625 C 345.136719 45.957031 343.164062 46.730469 341.433594 46.652344 C 336.820312 46.449219 334.1875 44.609375 333.796875 41.085938 C 333.433594 37.832031 335.988281 34.898438 340.089844 33.882812 C 342.835938 33.203125 345.546875 33.304688 348.160156 34.441406 C 349.742188 35.132812 351.175781 36.144531 350.371094 38.128906 C 349.671875 39.839844 348.140625 39.804688 346.542969 39.324219 C 344.167969 38.613281 341.734375 37.746094 339.601562 40.03125 C 340.058594 42.039062 341.664062 41.511719 342.910156 41.625 C 344.523438 41.777344 346.1875 41.613281 347.75 41.953125 C 350.316406 42.511719 351.863281 44.265625 352.199219 46.894531 C 352.535156 49.515625 351.410156 51.5625 349.238281 52.921875 C 345.578125 55.214844 341.699219 55.285156 337.765625 53.652344 C 336.25 53.023438 335.070312 51.96875 335.742188 50.207031 C 336.40625 48.472656 337.917969 48.414062 339.523438 48.964844 C 340.464844 49.285156 341.449219 49.488281 342.6875 49.746094 Z M 342.6875 49.746094 " fill-opacity="1" fill-rule="nonzero"/><path fill="#000000" d="M 180.636719 125.058594 C 179.816406 124.292969 179.109375 123.75 178.570312 123.082031 C 177.816406 122.148438 177.484375 121.054688 178.320312 119.996094 C 179.222656 118.859375 180.578125 118.539062 181.644531 119.398438 C 185.910156 122.839844 190.089844 126.386719 194.210938 129.992188 C 195.230469 130.882812 195.417969 132.199219 194.371094 133.332031 C 193.351562 134.433594 192.164062 134.320312 190.976562 133.605469 C 190.554688 133.347656 190.179688 133.011719 189.777344 132.71875 C 186.871094 130.574219 183.164062 131.984375 182.421875 135.554688 C 182.058594 137.316406 183.691406 137.808594 184.632812 138.679688 C 185.960938 139.90625 187.507812 141.105469 186.007812 143.035156 C 184.523438 144.949219 182.890625 143.960938 181.472656 142.785156 C 178.019531 139.917969 174.585938 137.027344 171.191406 134.089844 C 169.949219 133.007812 168.636719 131.683594 169.972656 129.949219 C 171.441406 128.039062 172.988281 129.003906 174.472656 130.191406 C 175.425781 130.953125 176.277344 131.933594 178.171875 132.191406 C 178.519531 129.726562 184.121094 129.558594 180.636719 125.058594 Z M 180.636719 125.058594 " fill-opacity="1" fill-rule="nonzero"/><path fill="#000000" d="M 212.324219 100.515625 C 214.789062 103.34375 212.269531 104.574219 210.875 106.183594 C 210.144531 107.027344 208.398438 107.667969 209.679688 109.15625 C 210.9375 110.613281 211.878906 109.132812 212.800781 108.4375 C 213.988281 107.539062 215.070312 106.488281 216.285156 105.628906 C 217.398438 104.839844 218.632812 104.667969 219.640625 105.839844 C 220.484375 106.820312 220.472656 108.066406 219.710938 108.953125 C 217.269531 111.796875 214.398438 114.210938 211.246094 116.210938 C 209.90625 117.066406 208.617188 116.117188 207.65625 115.019531 C 204.539062 111.457031 201.433594 107.882812 198.324219 104.3125 C 196.847656 102.617188 196.792969 100.960938 198.527344 99.414062 C 200.757812 97.429688 202.984375 95.429688 205.285156 93.523438 C 206.453125 92.550781 207.835938 92.351562 208.980469 93.570312 C 210.171875 94.835938 209.683594 96.09375 208.597656 97.179688 C 207.367188 98.414062 206.089844 99.601562 204.847656 100.828125 C 204.222656 101.445312 203.507812 102.085938 204.363281 103.023438 C 205.148438 103.886719 205.910156 103.445312 206.695312 102.960938 C 208.402344 101.902344 209.507812 99.558594 212.324219 100.515625 Z M 212.324219 100.515625 " fill-opacity="1" fill-rule="nonzero"/><path fill="#000000" d="M 410.722656 51.089844 C 411.488281 46.253906 412.273438 41.71875 412.96875 37.167969 C 413.382812 34.480469 414.867188 33.605469 417.445312 34.101562 C 420.132812 34.617188 422.851562 34.988281 425.542969 35.488281 C 426.996094 35.761719 428.28125 36.503906 428.070312 38.175781 C 427.84375 39.953125 426.398438 40.625 424.761719 40.496094 C 422.574219 40.324219 420.425781 39.546875 418.195312 39.839844 C 417.402344 42.503906 419.289062 42.730469 420.816406 43.011719 C 422.695312 43.355469 425 43.40625 424.660156 45.992188 C 424.285156 48.875 421.769531 48.035156 419.855469 47.988281 C 419.359375 47.976562 418.867188 47.859375 418.371094 47.828125 C 417.578125 47.777344 416.804688 47.902344 416.625 48.820312 C 416.40625 49.917969 417.148438 50.414062 418.074219 50.617188 C 419.898438 51.011719 421.757812 51.273438 423.5625 51.742188 C 424.753906 52.050781 425.460938 52.945312 425.332031 54.253906 C 425.203125 55.574219 424.308594 56.304688 423.085938 56.335938 C 419.316406 56.433594 415.644531 55.707031 412.085938 54.542969 C 410.726562 54.097656 410.535156 52.722656 410.722656 51.089844 Z M 410.722656 51.089844 " fill-opacity="1" fill-rule="nonzero"/><path fill="#000000" d="M 587.078125 170.203125 C 584.621094 166.890625 585.5625 164.792969 588.761719 163.089844 C 592.390625 161.15625 595.929688 159.042969 599.464844 156.933594 C 601.746094 155.574219 603.449219 155.980469 604.753906 158.285156 C 605.980469 160.457031 607.257812 162.601562 608.492188 164.769531 C 609.339844 166.257812 610.003906 167.910156 608.238281 169.082031 C 606.351562 170.335938 605.269531 168.769531 604.339844 167.417969 C 603.492188 166.1875 602.800781 164.851562 601.976562 163.601562 C 601.496094 162.878906 600.953125 162.078125 599.867188 162.757812 C 598.910156 163.355469 599.007812 164.179688 599.410156 165.042969 C 599.671875 165.609375 599.953125 166.167969 600.265625 166.703125 C 601.242188 168.371094 602.390625 170.246094 600.109375 171.550781 C 598.058594 172.722656 596.980469 170.960938 596.054688 169.40625 C 595.734375 168.871094 595.414062 168.332031 595.050781 167.828125 C 594.519531 167.101562 593.90625 166.390625 592.890625 166.953125 C 591.894531 167.507812 592.039062 168.375 592.480469 169.222656 C 593.226562 170.660156 593.988281 172.089844 594.777344 173.507812 C 595.589844 174.972656 595.886719 176.429688 594.183594 177.386719 C 592.484375 178.34375 591.34375 177.261719 590.488281 175.90625 C 589.359375 174.113281 588.304688 172.269531 587.078125 170.203125 Z M 587.078125 170.203125 " fill-opacity="1" fill-rule="nonzero"/><path fill="#000000" d="M 380.476562 173.9375 C 380.472656 184.808594 380.492188 195.304688 380.445312 205.800781 C 380.4375 207.40625 381.097656 209.644531 378.261719 209.636719 C 375.453125 209.628906 375.664062 207.503906 375.664062 205.613281 C 375.660156 191.617188 375.664062 177.621094 375.660156 163.625 C 375.660156 161.8125 375.585938 159.933594 378.191406 159.964844 C 380.617188 159.992188 380.457031 161.796875 380.464844 163.4375 C 380.476562 166.8125 380.472656 170.1875 380.476562 173.9375 Z M 380.476562 173.9375 " fill-opacity="1" fill-rule="nonzero"/><path fill="#000000" d="M 396.15625 553.335938 C 392.722656 558.273438 388.945312 560.015625 384.277344 558.695312 C 379.53125 557.351562 377.132812 553.921875 376.691406 549.121094 C 376.449219 546.523438 376.375 543.90625 376.351562 541.296875 C 376.339844 539.789062 377.046875 538.53125 378.71875 538.484375 C 380.414062 538.4375 381.039062 539.664062 381.175781 541.191406 C 381.402344 543.792969 381.578125 546.402344 381.871094 549 C 382.207031 551.980469 383.820312 553.949219 386.914062 553.957031 C 390.183594 553.960938 391.921875 551.914062 392.113281 548.761719 C 392.273438 546.160156 392.074219 543.535156 392.085938 540.921875 C 392.09375 539.265625 392.65625 537.847656 394.550781 537.820312 C 396.222656 537.792969 396.921875 539.015625 396.976562 540.554688 C 397.128906 544.746094 398.222656 548.996094 396.15625 553.335938 Z M 396.15625 553.335938 " fill-opacity="1" fill-rule="nonzero"/><path fill="#000000" d="M 538.515625 107.777344 C 543.613281 105.378906 548.492188 103.140625 553.378906 100.917969 C 554.660156 100.335938 555.992188 99.859375 557.246094 100.933594 C 558.507812 102.019531 558.238281 103.386719 557.765625 104.734375 C 556.085938 109.570312 554.414062 114.410156 552.683594 119.226562 C 552.152344 120.695312 551.316406 122.140625 549.433594 121.570312 C 547.457031 120.972656 547.433594 119.433594 547.847656 117.617188 C 548.757812 113.648438 545.613281 110.800781 541.625 111.925781 C 540.371094 112.277344 539.152344 112.675781 538.140625 111.59375 C 537 110.382812 537.199219 109.113281 538.515625 107.777344 Z M 538.515625 107.777344 " fill-opacity="1" fill-rule="nonzero"/><path fill="#000000" d="M 346.097656 206.558594 C 342.339844 200.070312 338.726562 193.8125 335.101562 187.566406 C 334.25 186.097656 333.394531 184.714844 335.539062 183.511719 C 337.703125 182.292969 338.414062 183.84375 339.238281 185.269531 C 345.726562 196.480469 352.199219 207.699219 358.703125 218.902344 C 359.597656 220.441406 360.238281 221.777344 358.136719 222.921875 C 356.171875 223.996094 355.4375 222.675781 354.664062 221.34375 C 351.847656 216.5 349.042969 211.648438 346.097656 206.558594 Z M 346.097656 206.558594 " fill-opacity="1" fill-rule="nonzero"/><path fill="#000000" d="M 524.199219 92.144531 C 525.972656 95.546875 523.957031 96.460938 521.425781 96.585938 C 516.316406 96.832031 511.789062 92.550781 511.128906 87.105469 C 510.484375 81.816406 513.890625 76.867188 519.074219 75.5625 C 524.171875 74.277344 529.808594 77.222656 531.527344 82.039062 C 532.082031 83.59375 532.171875 85.113281 530.546875 85.957031 C 528.617188 86.960938 527.59375 85.699219 526.792969 84.085938 C 525.320312 81.121094 523.023438 79.820312 519.75 80.984375 C 517.195312 81.890625 516.023438 83.851562 516.222656 86.503906 C 516.414062 89.03125 517.953125 90.554688 520.355469 91.191406 C 521.542969 91.503906 522.765625 91.699219 524.199219 92.144531 Z M 524.199219 92.144531 " fill-opacity="1" fill-rule="nonzero"/><path fill="#000000" d="M 414.515625 199.152344 C 410.25 206.523438 406.148438 213.675781 401.980469 220.785156 C 401.15625 222.191406 400.546875 224.289062 398.097656 222.847656 C 395.722656 221.453125 397.046875 219.914062 397.898438 218.4375 C 404.191406 207.503906 410.488281 196.574219 416.828125 185.667969 C 417.652344 184.253906 418.25 182.171875 420.707031 183.53125 C 423.441406 185.042969 421.632812 186.671875 420.796875 188.1875 C 418.800781 191.789062 416.710938 195.34375 414.515625 199.152344 Z M 414.515625 199.152344 " fill-opacity="1" fill-rule="nonzero"/><path fill="#000000" d="M 236.050781 511.464844 C 237.472656 514.152344 236.277344 515.121094 233.945312 515.40625 C 228.609375 516.050781 223.847656 512.28125 222.804688 506.578125 C 221.851562 501.367188 225.660156 495.878906 231.152344 494.550781 C 236.117188 493.347656 241.863281 496.664062 243.332031 501.496094 C 243.84375 503.179688 243.554688 504.53125 241.9375 505.253906 C 240.300781 505.984375 239.386719 504.828125 238.710938 503.550781 C 237.941406 502.097656 237.101562 500.753906 235.496094 500.0625 C 232.488281 498.769531 229.179688 500.367188 228.074219 503.683594 C 227.167969 506.402344 228.933594 509.484375 231.917969 510.324219 C 233.210938 510.6875 234.699219 510.246094 236.050781 511.464844 Z M 236.050781 511.464844 " fill-opacity="1" fill-rule="nonzero"/><path fill="#000000" d="M 268.726562 73.996094 C 269.429688 75.953125 268.960938 77.308594 267.253906 77.855469 C 265.640625 78.375 264.671875 77.207031 264.054688 75.925781 C 261.941406 71.558594 259.910156 67.152344 257.832031 62.769531 C 256.910156 60.824219 257.445312 59.367188 259.304688 58.425781 C 261.96875 57.078125 264.652344 55.765625 267.363281 54.523438 C 268.898438 53.820312 270.351562 53.960938 271.128906 55.695312 C 271.847656 57.300781 270.867188 58.328125 269.609375 59.046875 C 268.101562 59.910156 266.496094 60.601562 264.957031 61.414062 C 264.273438 61.773438 263.679688 62.304688 264.019531 63.191406 C 264.421875 64.253906 265.273438 64.273438 266.179688 63.917969 C 267.105469 63.550781 267.996094 63.101562 268.929688 62.757812 C 270.457031 62.199219 272.003906 62.128906 272.800781 63.816406 C 273.636719 65.59375 272.277344 66.539062 271 67.394531 C 270.796875 67.535156 270.574219 67.664062 270.339844 67.738281 C 266.734375 68.875 266.976562 71.097656 268.726562 73.996094 Z M 268.726562 73.996094 " fill-opacity="1" fill-rule="nonzero"/><path fill="#000000" d="M 488.210938 527.160156 C 487.460938 525.550781 486.738281 524.230469 486.226562 522.832031 C 485.324219 520.375 483.996094 519.441406 481.457031 520.882812 C 480.070312 521.667969 478.457031 521.804688 477.578125 520.082031 C 476.570312 518.105469 477.964844 517.039062 479.476562 516.285156 C 483.042969 514.507812 486.652344 512.820312 490.25 511.113281 C 491.78125 510.386719 493.261719 510.398438 494.09375 512.070312 C 494.851562 513.589844 494.039062 514.941406 492.6875 515.457031 C 489.109375 516.832031 489.675781 518.921875 491.160156 521.550781 C 492.503906 523.929688 493.59375 526.457031 494.730469 528.949219 C 495.417969 530.460938 495.390625 531.984375 493.726562 532.8125 C 491.953125 533.703125 490.945312 532.480469 490.179688 531.085938 C 489.523438 529.882812 488.945312 528.640625 488.210938 527.160156 Z M 488.210938 527.160156 " fill-opacity="1" fill-rule="nonzero"/><path fill="#000000" d="M 160.191406 166.78125 C 158.785156 165.9375 157.554688 165.308594 156.457031 164.503906 C 154.433594 163.015625 152.792969 162.628906 151.382812 165.339844 C 150.617188 166.8125 149.25 168.101562 147.449219 166.785156 C 145.785156 165.574219 146.332031 163.976562 147.257812 162.476562 C 149.222656 159.300781 151.148438 156.105469 153.125 152.9375 C 154.011719 151.519531 155.046875 150.089844 157 151.152344 C 158.953125 152.21875 158.496094 153.90625 157.523438 155.316406 C 155.945312 157.59375 156.832031 158.867188 158.917969 160.035156 C 161.523438 161.492188 164.066406 163.0625 166.585938 164.664062 C 168.007812 165.566406 169.339844 166.757812 168.210938 168.617188 C 167.089844 170.457031 165.445312 169.835938 163.953125 169.019531 C 162.753906 168.363281 161.601562 167.625 160.191406 166.78125 Z M 160.191406 166.78125 " fill-opacity="1" fill-rule="nonzero"/><path fill="#000000" d="M 521.191406 492.78125 C 524.15625 491 525.519531 491.53125 525.835938 494.492188 C 526.046875 496.460938 526.042969 498.472656 525.90625 500.453125 C 525.714844 503.304688 526.316406 505.816406 528.097656 508.117188 C 529.246094 509.605469 530.457031 511.476562 528.128906 512.882812 C 526.148438 514.082031 524.765625 512.648438 523.972656 510.992188 C 522.394531 507.683594 519.125 507.023438 516.289062 505.542969 C 513.949219 504.316406 508.882812 504.628906 510.457031 500.542969 C 511.890625 496.835938 515.347656 500.34375 517.898438 500.800781 C 518.609375 500.925781 519.285156 501.230469 520.042969 501.472656 C 521.890625 498.714844 520.050781 495.695312 521.191406 492.78125 Z M 521.191406 492.78125 " fill-opacity="1" fill-rule="nonzero"/><path fill="#000000" d="M 386.308594 36.410156 C 383.945312 36.851562 384.308594 38.589844 384.261719 40.003906 C 384.160156 42.988281 384.226562 45.980469 384.140625 48.964844 C 384.085938 50.722656 383.472656 52.398438 381.40625 52.234375 C 379.578125 52.09375 379.253906 50.445312 379.265625 48.835938 C 379.285156 45.847656 379.199219 42.855469 379.328125 39.871094 C 379.429688 37.507812 378.902344 36.003906 376.109375 36.117188 C 374.378906 36.1875 372.65625 35.625 372.808594 33.488281 C 372.957031 31.359375 374.78125 31.222656 376.46875 31.226562 C 379.828125 31.234375 383.191406 31.222656 386.554688 31.304688 C 388.507812 31.351562 391.0625 31.082031 391.09375 33.890625 C 391.125 36.898438 388.375 36.066406 386.308594 36.410156 Z M 386.308594 36.410156 " fill-opacity="1" fill-rule="nonzero"/><path fill="#000000" d="M 379.132812 395.308594 C 380.855469 396.128906 382.753906 396.820312 381.949219 398.859375 C 381.082031 401.054688 379.300781 399.863281 377.800781 399.386719 C 376.621094 399.011719 375.421875 398.808594 374.183594 399.824219 C 375.144531 401.445312 376.679688 400.796875 377.867188 401.0625 C 380.539062 401.65625 382.628906 402.886719 382.605469 405.925781 C 382.578125 408.851562 380.695312 410.425781 377.984375 410.972656 C 375.738281 411.425781 373.5 411.25 371.480469 410.019531 C 370.386719 409.351562 369.316406 408.476562 370.007812 407.019531 C 370.675781 405.605469 371.925781 405.632812 373.203125 406.226562 C 374.792969 406.96875 376.359375 407.460938 378 406.148438 C 376.988281 404.644531 375.59375 405.273438 374.453125 405.039062 C 371.660156 404.464844 369.445312 403.347656 369.503906 400.011719 C 369.570312 396.578125 371.761719 395.207031 374.796875 394.917969 C 376.132812 394.789062 377.507812 395.097656 379.132812 395.308594 Z M 379.132812 395.308594 " fill-opacity="1" fill-rule="nonzero"/><path fill="#000000" d="M 355.082031 421.242188 C 357 418.054688 359.46875 416.4375 362.980469 417.320312 C 366.046875 418.089844 367.917969 420.210938 368.371094 423.308594 C 368.910156 426.945312 368.304688 430.300781 364.875 432.460938 C 362.546875 433.925781 360.097656 433.898438 357.84375 432.402344 C 355.015625 430.519531 353.953125 427.65625 354.136719 424.355469 C 354.1875 423.390625 354.664062 422.449219 355.082031 421.242188 M 358.320312 424.394531 C 358.179688 426.875 358.953125 429.203125 361.660156 429.082031 C 363.921875 428.976562 364.535156 426.707031 364.320312 424.527344 C 364.191406 423.191406 363.585938 422.109375 362.269531 421.726562 C 360.335938 421.164062 359.289062 422.34375 358.320312 424.394531 Z M 358.320312 424.394531 " fill-opacity="1" fill-rule="nonzero"/><path fill="#000000" d="M 398.769531 421.171875 C 399.425781 422.828125 399.933594 424.222656 399.820312 425.765625 C 399.527344 429.742188 396.464844 433.1875 392.941406 433.46875 C 389.707031 433.726562 386.609375 431.332031 385.566406 427.773438 C 384.421875 423.863281 386.113281 419.597656 389.5 417.855469 C 393.019531 416.042969 395.640625 416.921875 398.769531 421.171875 M 390.316406 427.992188 C 391.617188 429.480469 393.082031 429.738281 394.421875 428.199219 C 395.757812 426.664062 395.9375 424.847656 394.917969 423.019531 C 394.230469 421.785156 393.125 421.257812 391.785156 421.671875 C 389.777344 422.292969 389.28125 423.90625 389.472656 425.796875 C 389.53125 426.390625 389.820312 426.964844 390.316406 427.992188 Z M 390.316406 427.992188 " fill-opacity="1" fill-rule="nonzero"/><path fill="#000000" d="M 349.882812 411.078125 C 339.132812 411.226562 340.347656 411.960938 340.277344 402.011719 C 340.273438 401.640625 340.273438 401.265625 340.273438 400.890625 C 340.273438 395.191406 344.847656 392.457031 350.25 394.914062 C 351.105469 395.304688 351.78125 395.816406 351.757812 396.824219 C 351.734375 398.035156 350.863281 398.488281 349.839844 398.777344 C 348.242188 399.238281 346.367188 398.480469 344.859375 399.707031 C 345.53125 401.570312 347.039062 400.710938 348.101562 401.003906 C 349.132812 401.285156 350.074219 401.636719 350.191406 402.804688 C 350.332031 404.21875 349.292969 404.679688 348.148438 405.027344 C 347.0625 405.359375 345.582031 404.546875 344.847656 406.171875 C 346.136719 407.65625 347.902344 406.742188 349.386719 407.109375 C 350.402344 407.359375 351.339844 407.664062 351.632812 408.78125 C 351.949219 409.992188 351.253906 410.636719 349.882812 411.078125 Z M 349.882812 411.078125 " fill-opacity="1" fill-rule="nonzero"/><path fill="#000000" d="M 333.527344 433.59375 C 331.699219 433.59375 330.203125 433.609375 328.710938 433.574219 C 327.457031 433.539062 326.117188 433.492188 325.53125 432.125 C 324.933594 430.746094 325.859375 429.789062 326.703125 428.84375 C 328.589844 426.734375 331.019531 425.113281 332.496094 422.644531 C 331.507812 420.984375 330.316406 421.511719 329.222656 422.113281 C 327.882812 422.855469 326.570312 423.269531 325.753906 421.59375 C 324.988281 420.019531 326.136719 419.027344 327.28125 418.207031 C 329.894531 416.328125 333.816406 416.695312 335.714844 419.140625 C 337.820312 421.851562 337.339844 424.441406 334.949219 426.785156 C 334.335938 427.386719 333.777344 428.046875 333.019531 428.871094 C 334.476562 429.984375 337.445312 428.929688 337.324219 431.589844 C 337.238281 433.53125 335.378906 433.515625 333.527344 433.59375 Z M 333.527344 433.59375 " fill-opacity="1" fill-rule="nonzero"/><path fill="#000000" d="M 417.078125 425.648438 C 415.5625 422.230469 416.527344 419.769531 419.390625 418.089844 C 422.296875 416.386719 425.25 416.695312 427.691406 418.925781 C 430.179688 421.207031 430.050781 423.960938 428.269531 426.710938 C 427.386719 428.070312 426.550781 429.457031 425.652344 430.804688 C 424.835938 432.023438 424.128906 433.703125 422.277344 433.136719 C 419.898438 432.40625 421.371094 430.464844 421.355469 428.988281 C 419.878906 428.046875 418.121094 427.527344 417.078125 425.648438 M 423.71875 421.34375 C 422.15625 421.042969 420.867188 421.402344 421.101562 423.246094 C 421.253906 424.46875 422.414062 425.066406 423.621094 424.570312 C 425.207031 423.917969 425.632812 422.855469 423.71875 421.34375 Z M 423.71875 421.34375 " fill-opacity="1" fill-rule="nonzero"/><path fill="#000000" d="M 406.597656 410.851562 C 403.894531 408.648438 405.144531 405.839844 404.949219 403.339844 C 404.78125 401.183594 405.125 398.980469 401.992188 398.726562 C 400.964844 398.640625 400.152344 397.902344 400.214844 396.675781 C 400.28125 395.441406 401.167969 394.957031 402.207031 394.796875 C 405.429688 394.300781 408.671875 394.363281 411.902344 394.734375 C 412.9375 394.851562 413.855469 395.347656 414.019531 396.523438 C 414.1875 397.726562 413.460938 398.554688 412.402344 398.679688 C 409.40625 399.027344 409.394531 401.121094 409.40625 403.339844 C 409.414062 404.960938 409.410156 406.585938 409.273438 408.199219 C 409.148438 409.625 408.765625 410.96875 406.597656 410.851562 Z M 406.597656 410.851562 " fill-opacity="1" fill-rule="nonzero"/><path fill="#000000" d="M 459.632812 543.582031 C 457.96875 538.746094 456.417969 534.171875 454.859375 529.597656 C 454.277344 527.890625 454.253906 526.308594 456.292969 525.65625 C 458.128906 525.070312 459.101562 526.285156 459.625 527.800781 C 461.191406 532.371094 462.707031 536.957031 464.191406 541.554688 C 464.640625 542.941406 464.59375 544.351562 463.121094 545.128906 C 461.609375 545.925781 460.523438 545.183594 459.632812 543.582031 Z M 459.632812 543.582031 " fill-opacity="1" fill-rule="nonzero"/><path fill="#000000" d="M 339.722656 223.417969 C 334.941406 217.792969 330.304688 212.386719 325.734375 206.929688 C 324.949219 205.992188 323.148438 204.882812 324.820312 203.566406 C 326.34375 202.375 327.238281 204.160156 328.074219 205.132812 C 333.035156 210.914062 337.976562 216.714844 342.851562 222.570312 C 343.710938 223.601562 345.667969 224.886719 344.050781 226.265625 C 342.386719 227.683594 341.621094 225.402344 340.605469 224.488281 C 340.328125 224.242188 340.128906 223.910156 339.722656 223.417969 Z M 339.722656 223.417969 " fill-opacity="1" fill-rule="nonzero"/><path fill="#000000" d="M 414.164062 224.28125 C 413.679688 224.863281 413.382812 225.265625 413.039062 225.621094 C 412.332031 226.355469 411.535156 227.179688 410.527344 226.214844 C 409.730469 225.453125 410.28125 224.609375 410.789062 223.878906 C 411.144531 223.367188 411.511719 222.863281 411.914062 222.390625 C 416.816406 216.609375 421.714844 210.824219 426.648438 205.070312 C 427.410156 204.183594 428.289062 202.597656 429.613281 203.640625 C 431.253906 204.9375 429.578125 206.042969 428.769531 207.003906 C 423.976562 212.714844 419.144531 218.390625 414.164062 224.28125 Z M 414.164062 224.28125 " fill-opacity="1" fill-rule="nonzero"/><path fill="#000000" d="M 359.609375 195.238281 C 357.585938 188.761719 355.621094 182.578125 353.742188 176.371094 C 353.386719 175.1875 352.269531 173.464844 354.296875 172.910156 C 355.9375 172.460938 356.109375 174.28125 356.457031 175.390625 C 358.8125 182.890625 361.117188 190.40625 363.417969 197.921875 C 363.769531 199.070312 364.585938 200.570312 362.871094 201.097656 C 361.113281 201.644531 361.074219 199.8125 360.652344 198.753906 C 360.238281 197.714844 360.011719 196.601562 359.609375 195.238281 Z M 359.609375 195.238281 " fill-opacity="1" fill-rule="nonzero"/><path fill="#000000" d="M 398.765625 180.527344 C 399.460938 178.214844 400.027344 176.167969 400.71875 174.167969 C 401.003906 173.34375 401.550781 172.527344 402.667969 172.9375 C 403.753906 173.332031 403.691406 174.253906 403.425781 175.128906 C 400.953125 183.238281 398.476562 191.351562 395.953125 199.445312 C 395.671875 200.359375 395.25 201.558594 393.925781 201.132812 C 392.402344 200.644531 392.863281 199.378906 393.195312 198.3125 C 395.011719 192.476562 396.851562 186.648438 398.765625 180.527344 Z M 398.765625 180.527344 " fill-opacity="1" fill-rule="nonzero"/><path fill="#000000" d="M 306.472656 411.808594 C 307.933594 413.886719 307.65625 415.546875 305.945312 416.933594 C 304.605469 418.015625 303.175781 417.941406 301.84375 416.910156 C 300.492188 415.863281 300.132812 414.335938 300.769531 412.890625 C 301.957031 410.207031 303.988281 410.15625 306.472656 411.808594 Z M 306.472656 411.808594 " fill-opacity="1" fill-rule="nonzero"/><path fill="#000000" d="M 450.175781 417.613281 C 448.09375 416.851562 446.996094 415.621094 447.273438 413.59375 C 447.453125 412.289062 448.21875 411.253906 449.542969 410.917969 C 451.597656 410.398438 453.414062 410.886719 453.910156 413.140625 C 454.488281 415.789062 453.285156 417.441406 450.175781 417.613281 Z M 450.175781 417.613281 " fill-opacity="1" fill-rule="nonzero"/><path fill="#000000" d="M 154.792969 421.125 C 157.375 420.757812 158.722656 421.859375 158.707031 424.121094 C 158.695312 425.835938 157.46875 426.773438 155.730469 426.800781 C 154.484375 426.816406 153.570312 426.144531 153.128906 425.023438 C 152.492188 423.398438 153.082031 422.128906 154.792969 421.125 Z M 154.792969 421.125 " fill-opacity="1" fill-rule="nonzero"/><path fill="#000000" d="M 186.617188 464.0625 C 189.148438 464.824219 190.324219 466.207031 189.046875 468.515625 C 188.125 470.179688 186.539062 470.449219 184.929688 469.445312 C 182.652344 468.027344 183.308594 465.554688 186.617188 464.0625 Z M 186.617188 464.0625 " fill-opacity="1" fill-rule="nonzero"/><path fill="#000000" d="M 138.386719 376.066406 C 137.25 377.917969 135.898438 378.589844 134.175781 377.507812 C 132.894531 376.707031 132.304688 375.464844 132.914062 373.964844 C 133.433594 372.699219 134.480469 371.894531 135.851562 372.089844 C 137.910156 372.386719 138.878906 373.664062 138.386719 376.066406 Z M 138.386719 376.066406 " fill-opacity="1" fill-rule="nonzero"/><path fill="#000000" d="M 205.355469 482.835938 C 207.734375 483.363281 208.40625 484.792969 208 486.746094 C 207.71875 488.101562 206.703125 488.867188 205.339844 488.855469 C 203.820312 488.839844 202.75 487.953125 202.453125 486.484375 C 202.039062 484.4375 202.996094 483.195312 205.355469 482.835938 Z M 205.355469 482.835938 " fill-opacity="1" fill-rule="nonzero"/><path fill="#000000" d="M 547.445312 483.570312 C 549.714844 482.472656 551.089844 483.28125 551.851562 485.167969 C 552.390625 486.492188 551.761719 487.613281 550.675781 488.421875 C 549.53125 489.273438 548.292969 489.25 547.265625 488.277344 C 545.734375 486.835938 545.6875 485.265625 547.445312 483.570312 Z M 547.445312 483.570312 " fill-opacity="1" fill-rule="nonzero"/><path fill="#000000" d="M 582.320312 448.765625 C 580.925781 446.601562 581.261719 444.949219 583.371094 443.976562 C 584.757812 443.335938 586.058594 443.8125 586.910156 445.144531 C 587.578125 446.191406 587.539062 447.296875 586.765625 448.261719 C 585.585938 449.734375 584.140625 450 582.320312 448.765625 Z M 582.320312 448.765625 " fill-opacity="1" fill-rule="nonzero"/><path fill="#000000" d="M 568.898438 464.589844 C 570.707031 465.75 571.410156 467.089844 570.265625 468.804688 C 569.429688 470.054688 568.207031 470.648438 566.707031 469.988281 C 565.464844 469.441406 564.605469 468.429688 564.839844 467.054688 C 565.1875 465.007812 566.550781 464.125 568.898438 464.589844 Z M 568.898438 464.589844 " fill-opacity="1" fill-rule="nonzero"/><path fill="#000000" d="M 620.554688 372.980469 C 622.3125 374.707031 622.222656 376.296875 620.664062 377.667969 C 619.664062 378.546875 618.359375 378.621094 617.21875 377.808594 C 616.109375 377.023438 615.589844 375.851562 616.089844 374.554688 C 616.851562 372.585938 618.355469 372.082031 620.554688 372.980469 Z M 620.554688 372.980469 " fill-opacity="1" fill-rule="nonzero"/><path fill="#000000" d="M 171.214844 448.984375 C 169.070312 449.609375 167.710938 448.988281 167.179688 447.097656 C 166.761719 445.601562 167.335938 444.398438 168.746094 443.664062 C 170.046875 442.988281 171.242188 443.289062 172.121094 444.34375 C 173.511719 446.015625 173.140625 447.554688 171.214844 448.984375 Z M 171.214844 448.984375 " fill-opacity="1" fill-rule="nonzero"/><path fill="#000000" d="M 600.679688 422.21875 C 602.027344 424.238281 601.660156 425.777344 599.902344 426.875 C 598.695312 427.628906 597.472656 427.269531 596.535156 426.273438 C 595.609375 425.289062 595.296875 424.058594 596.046875 422.863281 C 597.175781 421.066406 598.714844 420.816406 600.679688 422.21875 Z M 600.679688 422.21875 " fill-opacity="1" fill-rule="nonzero"/><path fill="#000000" d="M 128.769531 351.832031 C 126.519531 349.15625 126.644531 347.175781 128.894531 346.425781 C 130.015625 346.050781 131.113281 346.1875 132.011719 347.070312 C 132.90625 347.953125 133.140625 349.050781 132.679688 350.160156 C 132.011719 351.761719 130.707031 352.300781 128.769531 351.832031 Z M 128.769531 351.832031 " fill-opacity="1" fill-rule="nonzero"/><path fill="#000000" d="M 623.597656 346.75 C 625.992188 346.246094 627.203125 347.277344 627.488281 349.277344 C 627.675781 350.617188 626.878906 351.652344 625.632812 352.167969 C 624.144531 352.785156 622.929688 352.191406 622.164062 350.914062 C 621.160156 349.230469 621.730469 347.863281 623.597656 346.75 Z M 623.597656 346.75 " fill-opacity="1" fill-rule="nonzero"/><path fill="#000000" d="M 141.910156 401.734375 C 141.078125 399.800781 141.230469 398.292969 143.050781 397.425781 C 144.265625 396.847656 145.5 397 146.449219 398.066406 C 147.382812 399.121094 147.496094 400.402344 146.769531 401.523438 C 145.453125 403.546875 143.78125 403.429688 141.910156 401.734375 Z M 141.910156 401.734375 " fill-opacity="1" fill-rule="nonzero"/><path fill="#000000" d="M 608.699219 397.890625 C 610.769531 396.988281 612.132812 397.574219 612.84375 399.324219 C 613.417969 400.742188 612.886719 401.984375 611.625 402.855469 C 610.445312 403.671875 609.257812 403.589844 608.289062 402.558594 C 606.871094 401.046875 606.917969 399.5 608.699219 397.890625 Z M 608.699219 397.890625 " fill-opacity="1" fill-rule="nonzero"/><path fill="#000000" d="M 360.058594 292.601562 C 363.625 285.351562 367.988281 278.988281 373.386719 273.363281 C 376.460938 270.160156 378.1875 270.15625 381.195312 273.316406 C 390.972656 283.601562 397.355469 295.734375 400.59375 309.515625 C 401.597656 313.789062 400.132812 315.601562 395.605469 315.636719 C 383.496094 315.726562 371.382812 315.738281 359.273438 315.683594 C 354.433594 315.660156 352.925781 313.667969 354.101562 309.019531 C 355.511719 303.441406 357.328125 298.003906 360.058594 292.601562 M 386.191406 292.109375 C 383.671875 287.878906 381.203125 283.609375 377.210938 280.0625 C 369.679688 288.15625 364.804688 297.214844 362.042969 307.785156 C 372.542969 307.785156 382.390625 307.785156 392.585938 307.785156 C 391.28125 302.074219 389.015625 297.269531 386.191406 292.109375 Z M 386.191406 292.109375 " fill-opacity="1" fill-rule="nonzero"/></svg>